<svg width="60" height="60" viewBox="0 0 60 60" xmlns="http://www.w3.org/2000/svg" xmlns:xlink="http://www.w3.org/1999/xlink"><title>ic_book</title><defs><path id="a" d="M0 .432h38.441V48H.001z"/></defs><g fill="none" fill-rule="evenodd"><path d="M44.097 52.03H16.454a3.128 3.128 0 0 1-3.128-3.13V12.956a3.128 3.128 0 0 1 3.128-3.128h27.643c1.728 0 3.127 1.4 3.127 3.128v35.945a3.127 3.127 0 0 1-3.127 3.128" fill="#FFF"/><path d="M13 46.323h5.371V9A5.37 5.37 0 0 0 13 14.371v31.952z" fill="#0FF"/><g transform="translate(11 6.568)"><mask id="b" fill="#fff"><use xlink:href="#a"/></mask><path d="M34.441 44H5.865a1.866 1.866 0 0 1-1.829-1.512c.09-.647.625-1.156 1.298-1.156h29.107V44zM5.865 4.432h1.531v32.9H5.334c-.463 0-.906.078-1.334.189V6.297c0-1.028.837-1.865 1.865-1.865zm28.576 1.865v31.035H11.396v-32.9h21.18c1.028 0 1.865.837 1.865 1.865zM32.575.432H5.865A5.87 5.87 0 0 0 0 6.297v35.837c0 .12.01.237.017.354-.002.061-.017.117-.017.178A5.34 5.34 0 0 0 5.334 48h31.107a2 2 0 0 0 2-2V6.297A5.872 5.872 0 0 0 32.575.432z" fill="#455DFF" mask="url(#b)"/></g><path d="M40.521 33.085h-5.2a2 2 0 0 1 0-4h5.2a2 2 0 0 1 0 4m0 7.082H27.154a2 2 0 0 1 0-4H40.52a2 2 0 0 1 0 4" fill="#455DFF"/></g></svg>