<svg width="60" height="60" viewBox="0 0 60 60" xmlns="http://www.w3.org/2000/svg" xmlns:xlink="http://www.w3.org/1999/xlink"><title>ic_business</title><defs><path id="a" d="M0 .494h45.138V40H0z"/></defs><g fill="none" fill-rule="evenodd"><path d="M45.638 46.35H13.5a4.5 4.5 0 0 1-4.5-4.5v-19.5a4.5 4.5 0 0 1 4.5-4.5h32.136a4.5 4.5 0 0 1 4.5 4.5v19.5a4.5 4.5 0 0 1-4.5 4.5" fill="#FFF"/><g transform="translate(7 8.506)"><mask id="b" fill="#fff"><use xlink:href="#a"/></mask><path d="M38.638 36H6.5A2.503 2.503 0 0 1 4 33.5v-7.75h9.629a2 2 0 0 0 0-4h-9.63V14c0-1.379 1.123-2.5 2.502-2.5h32.137c1.379 0 2.5 1.121 2.5 2.5v7.75h-9.853a2 2 0 0 0 0 4h9.853v7.75c0 1.379-1.121 2.5-2.5 2.5zM17.937 7.5h9.265V4.494h-9.265V7.5zm20.7 0h-7.436V4.118A3.629 3.629 0 0 0 27.576.494H17.562a3.629 3.629 0 0 0-3.625 3.624V7.5H6.5A6.508 6.508 0 0 0 0 14v19.5C0 37.084 2.916 40 6.5 40h32.138c3.584 0 6.5-2.916 6.5-6.5V14c0-3.584-2.916-6.5-6.5-6.5z" fill="#455DFF" mask="url(#b)"/></g><path d="M30.019 36.11c1.467 0 2.218-.528 2.218-1.621 0-1.041-.733-1.45-2.218-1.45h-1.52v3.072h1.52zm-.256-5.323c1.297 0 1.876-.564 1.876-1.434 0-.904-.597-1.28-1.876-1.28H28.5v2.714h1.263zm-4.317-5.035h4.436c2.628 0 4.727.7 4.727 3.14 0 1.126-.632 2.355-1.655 2.748v.068c1.28.34 2.252 1.297 2.252 2.986 0 2.595-2.201 3.755-4.966 3.755h-4.794V25.752z" fill="#0FF"/></g></svg>