<?xml version="1.0" encoding="UTF-8"?>
<svg width="60px" height="60px" viewBox="0 0 60 60" version="1.1" xmlns="http://www.w3.org/2000/svg" xmlns:xlink="http://www.w3.org/1999/xlink">
    <!-- Generator: Sketch 52.3 (67297) - http://www.bohemiancoding.com/sketch -->
    <title>ic_bulb</title>
    <desc>Created with Sketch.</desc>
    <defs>
        <polygon id="path-1" points="0.61254 0.59058 18.57834 0.59058 18.57834 21.6 0.61254 21.6"></polygon>
        <polygon id="path-3" points="0.59499 0.2781 4.19499 0.2781 4.19499 7.69311 0.59499 7.69311"></polygon>
        <polygon id="path-5" points="0.07578 0.87363 7.4907 0.87363 7.4907 4.47363 0.07578 4.47363"></polygon>
    </defs>
    <g id="ic_bulb" stroke="none" stroke-width="1" fill="none" fill-rule="evenodd">
        <g id="Group-28" transform="translate(3.000000, 1.000000)">
            <polygon id="Fill-1" fill="#FFFFFF" points="19.77975 39.94191 19.77975 48.24261 26.69535 53.27991 33.91965 47.71791 33.91965 40.34241 26.69535 41.26041"></polygon>
            <g id="Group-27" transform="translate(0.000000, 0.622260)">
                <g id="Group-4" transform="translate(17.100000, 36.000000)">
                    <mask id="mask-2" fill="white">
                        <use xlink:href="#path-1"></use>
                    </mask>
                    <g id="Clip-3"></g>
                    <path d="M14.97834,4.19058 L14.97834,10.66788 L9.59544,14.73588 L4.21254,10.66788 L4.21254,4.19058 M2.41254,0.59058 C1.41894,0.59058 0.61254,1.39698 0.61254,2.39058 L0.61254,11.56338 C0.61254,12.12768 0.87714,12.65958 1.32714,12.99978 L7.79544,17.88858 L7.79544,19.80018 C7.79544,20.79378 8.60094,21.60018 9.59544,21.60018 C10.58904,21.60018 11.39544,20.79378 11.39544,19.80018 L11.39544,17.88858 L17.86374,12.99978 C18.31374,12.65958 18.57834,12.12768 18.57834,11.56338 L18.57834,2.39058 C18.57834,1.39698 17.77194,0.59058 16.77834,0.59058" id="Fill-2" fill="#455DFF" mask="url(#mask-2)"></path>
                </g>
                <g id="Group-7" transform="translate(24.300000, 0.000000)">
                    <mask id="mask-4" fill="white">
                        <use xlink:href="#path-3"></use>
                    </mask>
                    <g id="Clip-6"></g>
                    <path d="M2.39499,7.69311 C1.40139,7.69311 0.59499,6.88671 0.59499,5.89311 L0.59499,2.07801 C0.59499,1.08351 1.40139,0.27801 2.39499,0.27801 C3.38859,0.27801 4.19499,1.08351 4.19499,2.07801 L4.19499,5.89311 C4.19499,6.88671 3.38859,7.69311 2.39499,7.69311" id="Fill-5" fill="#00FFFF" mask="url(#mask-4)"></path>
                </g>
                <path d="M11.78964,13.86738 C11.32884,13.86738 10.86894,13.69188 10.51704,13.33998 L7.81884,10.64178 C7.11594,9.93888 7.11594,8.79948 7.81884,8.09658 C8.52174,7.39368 9.66114,7.39368 10.36404,8.09658 L13.06224,10.79478 C13.76514,11.49768 13.76514,12.63708 13.06224,13.33998 C12.71034,13.69188 12.25044,13.86738 11.78964,13.86738" id="Fill-8" fill="#00FFFF"></path>
                <path d="M5.61537,28.77363 L1.80027,28.77363 C0.80577,28.77363 0.00027,27.96723 0.00027,26.97363 C0.00027,25.98003 0.80577,25.17363 1.80027,25.17363 L5.61537,25.17363 C6.60897,25.17363 7.41537,25.98003 7.41537,26.97363 C7.41537,27.96723 6.60897,28.77363 5.61537,28.77363" id="Fill-10" fill="#00FFFF"></path>
                <path d="M9.09144,46.37727 C8.63064,46.37727 8.17074,46.20177 7.81884,45.84987 C7.11594,45.14697 7.11594,44.00757 7.81884,43.30467 L10.51704,40.60647 C11.21994,39.90357 12.35934,39.90357 13.06224,40.60647 C13.76514,41.30937 13.76514,42.44877 13.06224,43.15167 L10.36404,45.84987 C10.01214,46.20177 9.55224,46.37727 9.09144,46.37727" id="Fill-12" fill="#00FFFF"></path>
                <path d="M44.29953,46.37727 C43.83873,46.37727 43.37883,46.20177 43.02693,45.84987 L40.32873,43.15167 C39.62583,42.44877 39.62583,41.30937 40.32873,40.60647 C41.03163,39.90357 42.17103,39.90357 42.87393,40.60647 L45.57213,43.30467 C46.27503,44.00757 46.27503,45.14697 45.57213,45.84987 C45.22023,46.20177 44.76033,46.37727 44.29953,46.37727" id="Fill-14" fill="#00FFFF"></path>
                <g id="Group-18" transform="translate(45.900000, 24.300000)">
                    <mask id="mask-6" fill="white">
                        <use xlink:href="#path-5"></use>
                    </mask>
                    <g id="Clip-17"></g>
                    <path d="M5.69088,4.47363 L1.87578,4.47363 C0.88128,4.47363 0.07578,3.66723 0.07578,2.67363 C0.07578,1.68003 0.88128,0.87363 1.87578,0.87363 L5.69088,0.87363 C6.68448,0.87363 7.49088,1.68003 7.49088,2.67363 C7.49088,3.66723 6.68448,4.47363 5.69088,4.47363" id="Fill-16" fill="#00FFFF" mask="url(#mask-6)"></path>
                </g>
                <path d="M41.60124,13.86738 C41.14044,13.86738 40.68054,13.69188 40.32864,13.33998 C39.62574,12.63708 39.62574,11.49768 40.32864,10.79478 L43.02684,8.09658 C43.72974,7.39368 44.86914,7.39368 45.57204,8.09658 C46.27494,8.79948 46.27494,9.93888 45.57204,10.64178 L42.87384,13.33998 C42.52194,13.69188 42.06204,13.86738 41.60124,13.86738" id="Fill-19" fill="#00FFFF"></path>
                <path d="M40.36023,26.97363 C40.36023,34.52013 34.24203,40.63833 26.69463,40.63833 C19.14903,40.63833 13.03083,34.52013 13.03083,26.97363 C13.03083,19.42623 19.14903,13.30893 26.69463,13.30893 C34.24203,13.30893 40.36023,19.42623 40.36023,26.97363" id="Fill-21" fill="#FFFFFF"></path>
                <path d="M29.75013,41.37183 C28.75653,41.37183 27.95013,40.56543 27.95013,39.57183 L27.95013,31.50423 C27.36513,31.69143 26.76483,31.75623 26.16453,31.70493 C25.91163,31.68153 25.67043,31.63923 25.44093,31.57983 L25.44093,39.57183 C25.44093,40.56543 24.63453,41.37183 23.64093,41.37183 C22.64643,41.37183 21.84093,40.56543 21.84093,39.57183 L21.84093,28.02213 C21.84093,27.20853 22.38723,26.49573 23.17293,26.28333 C23.96313,26.07633 24.79023,26.41563 25.19703,27.11853 C25.37973,27.41643 25.94763,28.07703 26.49213,28.11933 C26.99883,28.16523 27.66393,27.69903 28.37853,26.85753 C28.86723,26.28063 29.66193,26.07273 30.37023,26.33283 C31.07943,26.59293 31.55013,27.26703 31.55013,28.02213 L31.55013,39.57183 C31.55013,40.56543 30.74373,41.37183 29.75013,41.37183" id="Fill-23" fill="#00FFFF"></path>
                <path d="M26.69499,15.10929 C20.15289,15.10929 14.83029,20.43189 14.83029,26.97399 C14.83029,33.51519 20.15289,38.83779 26.69499,38.83779 C33.23799,38.83779 38.56059,33.51519 38.56059,26.97399 C38.56059,20.43189 33.23799,15.10929 26.69499,15.10929 M26.69499,42.43779 C18.16749,42.43779 11.23029,35.50059 11.23029,26.97399 C11.23029,18.44649 18.16749,11.50929 26.69499,11.50929 C35.22249,11.50929 42.16059,18.44649 42.16059,26.97399 C42.16059,35.50059 35.22249,42.43779 26.69499,42.43779" id="Fill-25" fill="#455DFF"></path>
            </g>
        </g>
    </g>
</svg>