<svg width="60" height="60" viewBox="0 0 60 60" xmlns="http://www.w3.org/2000/svg" xmlns:xlink="http://www.w3.org/1999/xlink"><title>ic_category_blockchain</title><defs><path id="a" d="M0 .292h51.607V24H0z"/></defs><g fill="none" fill-rule="evenodd"><circle fill="#0FF" cx="28" cy="17" r="16"/><path d="M24.642 40.813c-1.911 0-3.338-1.548-3.338-3.46 0-1.91 1.567-3.462 3.478-3.462h12.886l5.315 2.646v10.49l-9.38 2.392H18.152v-.04a3.976 3.976 0 0 1-2.64-1.156l-8.336-8.336a4.017 4.017 0 0 1 .293-5.945c1.617-1.335 4.026-1.095 5.509.389l6.48 6.48 5.184.002zM48.546 51h-.502a5.061 5.061 0 0 1-5.061-5.062v-9.584a5.06 5.06 0 0 1 5.06-5.062h.503a5.062 5.062 0 0 1 5.062 5.062v9.584A5.063 5.063 0 0 1 48.546 51" fill="#FFF"/><g transform="translate(4 29)"><mask id="b" fill="#fff"><use xlink:href="#a"/></mask><path d="M47.608 16.939A3.065 3.065 0 0 1 44.544 20h-.5a3.065 3.065 0 0 1-3.063-3.061V7.354a3.064 3.064 0 0 1 3.063-3.061h.5a3.064 3.064 0 0 1 3.063 3.06v9.586zm-18.256 1.48H14.546a2.019 2.019 0 0 0-.294-.037 1.986 1.986 0 0 1-1.325-.574L4.59 9.473a1.992 1.992 0 0 1-.587-1.523c.026-.575.29-1.095.74-1.466.784-.647 2.024-.535 2.82.26l6.481 6.482c.375.374.884.585 1.415.585l5.183.002.01-.002h6.261a2 2 0 0 0 0-4h-6.28c-.872-.005-1.33-.736-1.33-1.457 0-.807.663-1.463 1.479-1.463h12.415l3.785 1.883v7.699l-7.63 1.946zM44.544.292h-.5a7.074 7.074 0 0 0-6.498 4.295L34.56 3.102a1.985 1.985 0 0 0-.892-.21H20.783c-3.021 0-5.479 2.45-5.479 5.463 0 .167.007.332.021.495l-4.932-4.933C8.155 1.68 4.555 1.454 2.195 3.4A6.04 6.04 0 0 0 .007 7.76a6.024 6.024 0 0 0 1.755 4.54l8.335 8.335a5.957 5.957 0 0 0 3.48 1.7c.182.055.376.084.575.084h15.45c.168 0 .334-.02.494-.063l7.783-1.984A7.065 7.065 0 0 0 44.044 24h.5a7.07 7.07 0 0 0 7.063-7.061V7.354c0-3.895-3.168-7.061-7.063-7.061z" fill="#283C8C" mask="url(#b)"/></g><path d="M39.387 17.19c0 6.18-5.01 11.189-11.19 11.189s-11.19-5.01-11.19-11.19 5.01-11.187 11.19-11.187 11.19 5.009 11.19 11.189" fill="#455DFF"/><path d="M30.191 20.28c-.246.237-.605.354-1.077.354h-.22v-2.61h.3c.407 0 .738.118.99.354.251.236.377.553.377.951 0 .398-.123.716-.37.951zm-3.909.354h1.06v-2.61h-1.06v2.61zm0-4.31h1.06v-2.58h-1.06v2.58zm2.816-2.58c.357 0 .658.115.905.348.246.23.37.524.37.88 0 .409-.129.737-.386.982-.257.247-.6.37-1.03.37h-.064v-2.58h.205zm3.091 4.084c-.372-.436-.8-.685-1.282-.748v-.063c.378-.063.73-.288 1.055-.676.325-.388.487-.886.487-1.495 0-.88-.283-1.588-.85-2.125-.566-.534-1.32-.8-2.265-.8h-.44v-1.305H27.34v1.304h-3.199v10.54h3.2v1.303h1.551V22.46h.457c1.132 0 1.982-.265 2.548-.795.566-.53.85-1.24.85-2.13 0-.704-.187-1.274-.559-1.707z" fill="#FFF"/></g></svg>