<svg width="60" height="60" viewBox="0 0 60 60" xmlns="http://www.w3.org/2000/svg" xmlns:xlink="http://www.w3.org/1999/xlink"><title>ic_category_stock</title><defs><path id="a" d="M0 .767h55.906V39H0z"/></defs><g fill="none" fill-rule="evenodd"><circle fill="#0FF" cx="42" cy="18" r="14"/><circle fill="#0FF" cx="20" cy="8" r="4"/><path fill="#FFF" d="M10.881 49.233h8.015v-4.926h-8.015zm14.36 0h8.015v-14.62h-8.015zm14.36 0h8.015V24.53h-8.015z"/><g transform="translate(2 12.233)"><mask id="b" fill="#fff"><use xlink:href="#a"/></mask><path d="M10.881 35h4.015v-.926h-4.015V35zm14.36 0h4.015V24.379h-4.015V35zm14.361 0h4.015V14.297h-4.015V35zm14.304 0h-6.29V12.297a2 2 0 0 0-2-2h-8.014a2 2 0 0 0-2 2V35h-2.346V22.379a2 2 0 0 0-2-2h-8.015a2 2 0 0 0-2 2V35h-2.345v-2.926a2 2 0 0 0-2-2H8.881a2 2 0 0 0-2 2V35H2a2 2 0 0 0 0 4h51.906a2 2 0 0 0 0-4z" fill="#455DFF" mask="url(#b)"/><path d="M12.984 23.804c-.254 0-.509-.048-.752-.146l-8.056-3.27A2 2 0 0 1 5.68 16.68l6.843 2.777L24.28 7.975c.183-.18.4-.322.64-.42L41.101.917a1.983 1.983 0 0 1 1.312-.071l10.087 2.9a2 2 0 0 1 1.37 2.476 1.993 1.993 0 0 1-2.476 1.369l-9.419-2.71-15.179 6.228L14.38 23.235c-.38.372-.884.569-1.397.569" fill="#283C8C" mask="url(#b)"/></g></g></svg>