<svg width="60" height="60" viewBox="0 0 60 60" xmlns="http://www.w3.org/2000/svg" xmlns:xlink="http://www.w3.org/1999/xlink"><title>ic_target</title><defs><path id="a" d="M0 .286h46.712V47H0z"/></defs><g fill="none" fill-rule="evenodd"><path d="M43.025 31.23c0 7.547-6.12 13.667-13.669 13.667s-13.668-6.12-13.668-13.667c0-7.549 6.12-13.669 13.668-13.669 7.55 0 13.67 6.12 13.67 13.67" fill="#FFF"/><path d="M29.356 19.56c-6.434 0-11.668 5.234-11.668 11.67 0 6.433 5.234 11.667 11.668 11.667 6.435 0 11.67-5.234 11.67-11.668 0-6.435-5.235-11.669-11.67-11.669m0 27.337c-8.64 0-15.668-7.028-15.668-15.668S20.716 15.56 29.356 15.56s15.67 7.03 15.67 15.67-7.03 15.667-15.67 15.667" fill="#455DFF"/><path d="M50.713 31.23c0 11.793-9.562 21.355-21.356 21.355C17.562 52.585 8 43.023 8 31.23 8 19.434 17.562 9.872 29.357 9.872c11.794 0 21.356 9.562 21.356 21.357" fill="#FFF"/><g transform="translate(6 7.585)"><mask id="b" fill="#fff"><use xlink:href="#a"/></mask><path d="M23.356 4.286C12.683 4.286 4 12.97 4 23.643S12.683 43 23.356 43c10.673 0 19.356-8.684 19.356-19.357S34.03 4.286 23.356 4.286m0 42.714C10.477 47 0 36.522 0 23.643 0 10.765 10.477.286 23.356.286c12.88 0 23.356 10.48 23.356 23.357C46.712 36.523 36.235 47 23.356 47" fill="#455DFF" mask="url(#b)"/></g><path d="M43.025 31.23c0 7.547-6.12 13.667-13.669 13.667s-13.668-6.12-13.668-13.667c0-7.549 6.12-13.669 13.668-13.669 7.55 0 13.67 6.12 13.67 13.67" fill="#0FF"/><path d="M29.356 19.56c-6.434 0-11.668 5.234-11.668 11.67 0 6.433 5.234 11.667 11.668 11.667 6.435 0 11.67-5.234 11.67-11.668 0-6.435-5.235-11.669-11.67-11.669m0 27.337c-8.64 0-15.668-7.028-15.668-15.668S20.716 15.56 29.356 15.56s15.67 7.03 15.67 15.67-7.03 15.667-15.67 15.667" fill="#455DFF"/><path d="M36.07 31.23a6.713 6.713 0 1 1-13.426-.002 6.713 6.713 0 0 1 13.425.001" fill="#FFF"/><path d="M29.356 26.516a4.718 4.718 0 0 0-4.713 4.713 4.717 4.717 0 0 0 4.713 4.712 4.717 4.717 0 0 0 4.713-4.712 4.718 4.718 0 0 0-4.713-4.713m0 13.425c-4.805 0-8.713-3.908-8.713-8.712 0-4.805 3.908-8.713 8.713-8.713s8.713 3.908 8.713 8.713c0 4.804-3.908 8.712-8.713 8.712" fill="#455DFF"/><path fill="#0FF" d="M50.238 10.346L46.442 7.5l-5.562 5.563v7.013h6.996l5.096-5.096z"/><path d="M47.255 18.576H44.13l5.8-5.8 1.16 1.964-3.835 3.835zm-4.875-4.893l4.203-4.203 1.372 1.03-5.575 5.575v-2.402zm11.885.534l-2.145-3.631.602-.602a1.5 1.5 0 1 0-2.121-2.121l-.503.503L47.343 6.3a1.501 1.501 0 0 0-1.961.139l-5.563 5.563a1.5 1.5 0 0 0-.44 1.06v6.023L28.297 30.169a1.5 1.5 0 1 0 2.12 2.12l10.715-10.713h6.745c.398 0 .779-.158 1.06-.44l5.097-5.096a1.5 1.5 0 0 0 .232-1.823z" fill="#455DFF"/></g></svg>