<svg width="60" height="60" viewBox="0 0 60 60" xmlns="http://www.w3.org/2000/svg"><title>ic_category_statistics</title><g fill="none" fill-rule="evenodd"><path fill="#FFF" d="M8 17.064h43.273V11H8z"/><path fill="#FFF" d="M12.557 41.319h34.16V17.063h-34.16z"/><path d="M14.557 39.319h30.16V19.063h-30.16v20.256zM10 13h39.273v2.064H10V13zm41.273 6.064a2 2 0 0 0 2-2V11a2 2 0 0 0-2-2H8a2 2 0 0 0-2 2v6.064a2 2 0 0 0 2 2h2.557v20.255H8a2 2 0 0 0 0 4h19.637v4.187h-6.035a2 2 0 0 0 0 4h16.271a2 2 0 0 0 0-4h-6.236v-4.187h19.636a2 2 0 1 0 0-4h-2.556V19.064h2.556z" fill="#455DFF"/><path d="M37.856 29.192a8.22 8.22 0 1 1-16.44-.001 8.22 8.22 0 0 1 16.44 0" fill="#0FF"/><path d="M29.637 21.473c-4.257 0-7.72 3.463-7.72 7.719 0 4.257 3.463 7.719 7.72 7.719s7.72-3.462 7.72-7.72c0-4.255-3.463-7.718-7.72-7.718m0 16.438c-4.808 0-8.72-3.912-8.72-8.72 0-4.807 3.912-8.718 8.72-8.718 4.808 0 8.72 3.91 8.72 8.719 0 4.807-3.912 8.719-8.72 8.719" fill="#FFF"/><path d="M29.637 20.973v8.219" fill="#283C8C"/><path fill="#FFF" d="M29.137 29.192h1v-8.219h-1z"/><path fill="#FFF" d="M24.467 35.6l-.738-.673 5.71-6.194 7.545-3.261.396.918-7.446 3.218z"/></g></svg>