<svg width="60" height="60" viewBox="0 0 60 60" xmlns="http://www.w3.org/2000/svg" xmlns:xlink="http://www.w3.org/1999/xlink"><title>ic_category_machine_learning</title><defs><path id="a" d="M0 .835h41.411V48H.001z"/></defs><g fill="none" fill-rule="evenodd"><g transform="translate(9 6.165)"><mask id="b" fill="#fff"><use xlink:href="#a"/></mask><path d="M41.411 20.623c0-10.93-8.51-19.789-19.009-19.789-8.22 0-15.22 5.434-17.872 13.037L.095 26.707a1.71 1.71 0 0 0 1.615 2.268h3.596c.606 0 1.098.492 1.098 1.098v6.358c0 1.136.921 2.056 2.057 2.056h3.514c.628 0 1.138.51 1.138 1.139V48h20.015V36.96c5.001-3.566 8.283-9.552 8.283-16.337" fill="#455DFF" mask="url(#b)"/></g><path fill="#FFF" d="M33.617 32.892h-3.221v-5.428l-2.553 5.428H25.7L23.148 27.5v5.392h-3.221V20.89h3.478l3.358 6.557 3.375-6.557h3.48zm10.322 0h-8.705V20.89h3.29v9.046h5.415z"/><circle fill="#0FF" cx="10.5" cy="9.5" r="4.5"/><circle fill="#0FF" cx="50" cy="45" r="3"/><circle fill="#0FF" cx="50" cy="10" r="2"/></g></svg>