<svg width="80" height="60" viewBox="0 0 80 60" xmlns="http://www.w3.org/2000/svg" xmlns:xlink="http://www.w3.org/1999/xlink"><title>ic_problem_solving</title><defs><path id="a" d="M0 .327h53.552V43H0z"/></defs><g fill="none" fill-rule="evenodd"><path fill="#0FF" d="M39.002 29.202v22.236h39.206L47.845 19.664z"/><g transform="translate(2 8.674)"><path d="M21.663 41.353c0-5.588-4.529-10.117-10.116-10.117-5.588 0-10.117 4.53-10.117 10.117h20.233zM8.955 31.236h4.787l.197-7.941H9.153zM7.086 18.29a4.46 4.46 0 1 0 8.92.001 4.46 4.46 0 0 0-8.92 0M21.663 3.415l-8.485 9.16 4.133 4.134L30.094 3.415z" fill="#FFF"/><path d="M26.776 7.087a5.113 5.113 0 1 0 10.226-.002 5.113 5.113 0 0 0-10.226.001" fill="#FFF"/><path d="M36.193 15.843a4.686 4.686 0 1 0 9.37 0 4.686 4.686 0 0 0-9.37 0" fill="#0FF"/><path fill="#FFF" d="M51.688 5.237H37.002l-6.935 6.935V26.45z"/><mask id="b" fill="#fff"><use xlink:href="#a"/></mask><path d="M31.932 22.526V12.93l5.976-6.046h9.966L31.932 22.526zm-16.396-9.029l-.667-.667 7.699-7.768h3.102a6.702 6.702 0 0 0-.2.842l-8.79 8.737-.122-.123a6.17 6.17 0 0 0-1.022-1.021zm-3.771 16.091c-.037 0-.072.006-.11.006h-.636v-4.652h1.49v4.652h-.635c-.037 0-.073-.006-.11-.006zm8.308 10.118H3.455a8.482 8.482 0 0 1 8.186-6.817h.248c4.05.059 7.424 2.972 8.184 6.817zm-8.308-24.228c.589 0 1.135.184 1.588.495l.728.729c.312.452.497.999.497 1.59a2.817 2.817 0 0 1-2.813 2.812 2.816 2.816 0 0 1-2.813-2.812 2.816 2.816 0 0 1 2.813-2.814zm23.224-10.34l-4.814 4.814a3.472 3.472 0 0 1-1.52-2.865 3.397 3.397 0 0 1 .105-.813 3.39 3.39 0 0 1 .147-.468c.01-.032.022-.062.035-.094.07-.162.157-.312.25-.459a3.707 3.707 0 0 1 .446-.577l.047-.051a3.452 3.452 0 0 1 2.434-1.004c1.176 0 2.235.577 2.87 1.517zm6.106 13.742c-.226 0-.45-.025-.666-.072l3.642-3.576a3.04 3.04 0 0 1-2.976 3.648zM53.43 4.614a1.646 1.646 0 0 0-1.524-1.025h-14.01A6.706 6.706 0 0 0 32.119.327a6.725 6.725 0 0 0-4.158 1.44h-6.08c-.44 0-.86.176-1.17.488l-9.338 9.419a1.625 1.625 0 0 0-.363.561c-3.013.374-5.353 2.944-5.353 6.057 0 1.842.824 3.493 2.119 4.613a1.624 1.624 0 0 0-.052.391v7.023C3.224 31.972 0 36.288 0 41.353 0 42.263.738 43 1.648 43H21.88c.91 0 1.648-.737 1.648-1.647 0-5.066-3.225-9.381-7.724-11.034v-7.023c0-.135-.021-.265-.052-.39a6.09 6.09 0 0 0 2.118-4.614c0-.061-.006-.12-.008-.18l8.169-8.121a6.75 6.75 0 0 0 2.556 2.86l.05.053V26.45a1.646 1.646 0 0 0 2.8 1.175l6.449-6.328c.962.569 2.06.877 3.208.877a6.338 6.338 0 0 0 6.332-6.331 6.287 6.287 0 0 0-.817-3.103l6.449-6.327c.477-.469.624-1.18.37-1.799z" fill="#455DFF" mask="url(#b)"/></g></g></svg>