<?xml version="1.0" encoding="UTF-8"?>
<svg width="60px" height="60px" viewBox="0 0 60 60" version="1.1" xmlns="http://www.w3.org/2000/svg" xmlns:xlink="http://www.w3.org/1999/xlink">
    <!-- Generator: Sketch 52.6 (67491) - http://www.bohemiancoding.com/sketch -->
    <title>ic_pen</title>
    <desc>Created with Sketch.</desc>
    <defs>
        <polygon id="path-1" points="0.501109375 1.07183484 51.3816 1.07183484 51.3816 48.5931602 0.501109375 48.5931602"></polygon>
    </defs>
    <g id="ic_pen" stroke="none" stroke-width="1" fill="none" fill-rule="evenodd">
        <g id="Group-8" transform="translate(2.000000, 2.000000)">
            <path d="M34.25448,56.52864 L2.40048,56.52864 C1.07448,56.52864 0.00048,55.45464 0.00048,54.12864 C0.00048,52.80264 1.07448,51.72864 2.40048,51.72864 L34.25448,51.72864 C35.57928,51.72864 36.65448,52.80264 36.65448,54.12864 C36.65448,55.45464 35.57928,56.52864 34.25448,56.52864" id="Fill-1" fill="#00FFFF"></path>
            <path d="M16.78764,42.2718 L4.28724,47.3346 L10.25004,35.2386 L44.32884,3.8706 C46.27044,2.0646 49.30884,2.1762 51.11364,4.1178 C52.91844,6.0606 52.80804,9.0978 50.86524,10.9038 L16.78764,42.2718 Z" id="Fill-3" fill="#FFFFFF"></path>
            <g id="Group-7" transform="translate(2.400000, 0.128640)">
                <mask id="mask-2" fill="white">
                    <use xlink:href="#path-1"></use>
                </mask>
                <g id="Clip-6"></g>
                <path d="M47.52192,9.75852 L46.85112,10.38132 L42.20352,5.37972 L42.87312,4.75692 C43.54272,4.13412 44.42352,3.81252 45.32232,3.84612 C46.23432,3.87852 47.07792,4.26612 47.69832,4.93332 C48.97872,6.31212 48.89952,8.47692 47.52192,9.75852 Z M43.33512,13.65012 L38.68752,8.64732 L40.17192,7.26732 L44.82192,12.26892 L43.33512,13.65012 Z M37.91472,18.68772 L33.26592,13.68612 L36.65592,10.53612 L41.30472,15.53772 L37.91472,18.68772 Z M15.26472,39.43452 L13.88472,37.95012 L34.50312,19.08972 L35.88312,20.57532 L15.26472,39.43452 Z M6.69432,43.76292 L5.67312,42.66492 L8.72472,36.47172 L13.09392,41.17092 L6.69432,43.76292 Z M31.23432,15.57372 L32.61552,17.05932 L11.99712,35.91852 L10.61592,34.43292 L31.23432,15.57372 Z M49.72992,3.04452 C48.60552,1.83372 47.07432,1.13532 45.42312,1.07412 C43.77432,1.03092 42.19512,1.60092 40.98552,2.72532 L6.90672,34.09452 C6.78192,34.20852 6.68112,34.34532 6.60672,34.49652 L0.64392,46.59372 C0.38952,47.10852 0.48072,47.72892 0.87192,48.15012 C1.14552,48.44532 1.52712,48.60012 1.91472,48.59292 C2.08032,48.58932 2.24712,48.55692 2.40912,48.49212 L14.90832,43.42932 C15.06432,43.36452 15.20712,43.27452 15.33072,43.15932 L49.41072,11.79012 C51.90912,9.46812 52.05192,5.54412 49.72992,3.04452 Z" id="Fill-5" fill="#455DFF" mask="url(#mask-2)"></path>
            </g>
        </g>
    </g>
</svg>