<svg width="60" height="60" viewBox="0 0 60 60" xmlns="http://www.w3.org/2000/svg" xmlns:xlink="http://www.w3.org/1999/xlink"><title>ic_category_blockchain_dapp</title><defs><path id="a" d="M0 .552h59.53v36.474H0z"/></defs><g fill="none" fill-rule="evenodd"><circle fill="#0FF" cx="44.5" cy="17.5" r="10.5"/><path d="M48.129 36.416V19.304a5.38 5.38 0 0 0-5.38-5.381h-25.97a5.38 5.38 0 0 0-5.38 5.381v17.112l-9.45 4.785A5.298 5.298 0 0 0 7.245 46.5h45.038a5.298 5.298 0 0 0 5.297-5.3l-9.451-4.785z" fill="#FFF"/><path d="M21.707 23.416c0 1.083-.331 1.595-1.264 1.806.933.225 1.264.735 1.264 1.819v1.82c0 .706.286.977 1.323.977v1.925h-1.007c-1.956 0-2.633-.557-2.633-2.106v-2.782c0-.48-.165-.661-.555-.661h-.587v-1.985h.587c.39 0 .555-.166.555-.647v-2.797c0-1.55.677-2.091 2.633-2.091h1.007v1.91c-1.037 0-1.323.271-1.323.978v1.834zm5.997 4.654h1.91c1.64 0 2.812-1.262 2.812-3.112 0-1.865-1.234-3.144-2.934-3.144h-1.788v6.256zm1.849-8.39c3.309 0 5.595 2.134 5.595 5.263 0 3.112-2.315 5.263-5.7 5.263h-4.422V19.68h4.527zm11.728 6.534h-.571c-.406 0-.572.181-.572.661v2.782c0 1.55-.676 2.106-2.632 2.106h-.993v-1.925c1.023 0 1.324-.27 1.324-.977v-1.82c0-1.083.316-1.594 1.263-1.804-.947-.226-1.263-.738-1.263-1.82v-1.835c0-.707-.3-.979-1.324-.979v-1.91h.993c1.956 0 2.632.542 2.632 2.092v2.797c0 .481.166.647.572.647h.57v1.985z" fill="#283C8C"/><g transform="translate(0 11.422)"><mask id="b" fill="#fff"><use xlink:href="#a"/></mask><path d="M52.283 33.128H7.246a3.352 3.352 0 0 1-2.96-1.785h50.957a3.352 3.352 0 0 1-2.96 1.785zM12.28 26.733c.085-.042.154-.106.231-.16H47.02c.077.054.145.118.23.16l3.332 1.687H8.947l3.332-1.687zm4.5-22.283h25.97a3.436 3.436 0 0 1 3.43 3.433V23.65H13.349V7.883A3.436 3.436 0 0 1 16.78 4.45zm41.682 23.59l-8.384-4.244V7.883c0-4.042-3.288-7.33-7.329-7.33H16.78c-4.041 0-7.33 3.288-7.33 7.33v15.914L1.069 28.04A1.95 1.95 0 0 0 0 29.78c0 3.996 3.25 7.247 7.246 7.247h45.037c3.996 0 7.247-3.25 7.247-7.247a1.95 1.95 0 0 0-1.07-1.738z" fill="#455DFF" mask="url(#b)"/></g></g></svg>