<svg width="60" height="60" viewBox="0 0 60 60" xmlns="http://www.w3.org/2000/svg"><title>ic_language</title><g fill="none" fill-rule="evenodd"><rect fill="#0FF" x="6" y="3" width="30" height="30" rx="14.5"/><path d="M29.43 18.66h-2.56v8.92h-2.64V9.76h2.64v6.72h2.56v2.18zm-7.18-7.06c-.14 5.22-2.26 9.72-8.06 12.9l-1.48-2.08c3.88-1.82 6.38-5.24 6.74-8.64h-5.66V11.6h8.46z" fill="#FFF"/><rect fill="#455DFF" x="24" y="25" width="30" height="30" rx="2"/><path d="M42.726 45.976h-7.641L33.951 49h-5.778l8.073-18.927h5.778L49.827 49h-5.994l-1.107-3.024zm-1.485-4.104l-2.268-6.183-2.322 6.183h4.59z" fill="#FFF"/></g></svg>