<svg width="28" height="50" viewBox="0 0 28 50" xmlns="http://www.w3.org/2000/svg"><title>ic_clip</title><path d="M9.89 49.031h-.554C4.189 49.031 0 44.843 0 39.695V13.692C0 6.142 6.143 0 13.693 0s13.69 6.142 13.69 13.692v23.49a2 2 0 1 1-4 0v-23.49c0-5.345-4.347-9.692-9.69-9.692C8.348 4 4 8.347 4 13.692v26.003a5.342 5.342 0 0 0 5.336 5.336h.554a5.852 5.852 0 0 0 5.845-5.846V16.277a2.562 2.562 0 0 0-2.558-2.558 2.562 2.562 0 0 0-2.558 2.558V38.02a2 2 0 1 1-4 0V16.277a6.566 6.566 0 0 1 6.558-6.558 6.566 6.566 0 0 1 6.558 6.558v22.908c0 5.43-4.416 9.846-9.845 9.846" fill="#CCC" fill-rule="evenodd"/></svg>