<svg width="164" height="34" viewBox="0 0 164 34" xmlns="http://www.w3.org/2000/svg"><title>logo_dark</title><g fill="#28283C" fill-rule="evenodd"><path d="M23.292 10.956c1.053.733 1.715 1.747 1.986 3.043l-3.46.705c-.128-.641-.427-1.136-.897-1.485a2.623 2.623 0 0 0-1.6-.523c-.57 0-1.033.139-1.389.417-.356.277-.534.622-.534 1.035 0 .627.384 1.025 1.153 1.196l2.968.662c2.62.584 3.93 1.972 3.93 4.164 0 1.466-.563 2.605-1.687 3.417-1.125.81-2.527 1.217-4.207 1.217-1.666 0-3.078-.381-4.239-1.143-1.16-.761-1.833-1.825-2.018-3.192l3.631-.705c.341 1.41 1.28 2.115 2.818 2.115.654 0 1.171-.136 1.548-.406.378-.271.566-.627.566-1.068 0-.342-.096-.612-.288-.811-.193-.2-.537-.35-1.036-.45l-2.989-.64c-2.563-.583-3.844-1.964-3.844-4.142 0-1.381.52-2.477 1.56-3.29 1.037-.81 2.404-1.216 4.1-1.216 1.564 0 2.874.367 3.928 1.1m16.672 2.295v11.232h-3.502V13.251h-4.634v-3.075h12.77v3.075zm24.506 4.623c0 2.05-.58 3.69-1.74 4.922-1.16 1.232-2.694 1.847-4.602 1.847-1.95 0-3.52-.615-4.708-1.847-1.19-1.232-1.783-2.872-1.783-4.922v-7.858h3.523v7.858c0 1.082.27 1.94.812 2.573.54.633 1.259.95 2.156.95.854 0 1.538-.317 2.05-.95.513-.633.769-1.49.769-2.573v-7.858h3.523v7.858zm13.205 3.556c1.338 0 2.41-.374 3.214-1.121.805-.748 1.207-1.74 1.207-2.98 0-1.237-.402-2.231-1.207-2.978-.804-.747-1.876-1.121-3.214-1.121h-2.007v8.2h2.007zm.13-11.254c2.347 0 4.241.659 5.68 1.975 1.436 1.318 2.155 3.044 2.155 5.179 0 2.135-.719 3.862-2.156 5.178-1.438 1.317-3.332 1.976-5.68 1.976h-5.659V10.176h5.66zm21.657 14.307h-3.587v-4.442l-5.53-9.865h3.842l3.524 6.278 3.481-6.278h3.93l-5.66 9.822zm18.601-7.324c.683 0 1.22-.181 1.612-.544.392-.364.588-.851.588-1.463 0-.584-.2-1.057-.598-1.42-.4-.364-.933-.545-1.602-.545h-3.117v3.972h3.117zm.406-6.982c1.609 0 2.886.45 3.833 1.354.947.904 1.42 2.096 1.42 3.577 0 1.51-.487 2.72-1.463 3.63-.975.912-2.288 1.367-3.94 1.367h-3.373v4.378h-3.523V10.178h7.046zm34.406 14.28h-11.148V10.148h11.083v3.033h-7.56v2.69h6.941v2.861h-6.94v2.691h7.624z"/><path d="M160 30h-25.599V12.146h-4.01V30H4V4h126.391v4.073h4.01V4H160v26zM0 34h164V0H0v34z"/></g></svg>